<svg width="48" height="48" viewBox="0 0 48 48" fill="none" xmlns="http://www.w3.org/2000/svg">
<path d="M12 27.9999L15 22.1999C15.3261 21.5522 15.8222 21.0054 16.4352 20.6178C17.0482 20.2303 17.755 20.0167 18.48 19.9999H40M40 19.9999C40.6111 19.9989 41.2142 20.1378 41.7633 20.4061C42.3123 20.6744 42.7925 21.0649 43.1671 21.5477C43.5418 22.0304 43.8008 22.5926 43.9244 23.1911C44.0479 23.7895 44.0328 24.4083 43.88 24.9999L40.8 36.9999C40.5772 37.8631 40.0724 38.627 39.3658 39.1705C38.6593 39.714 37.7914 40.006 36.9 39.9999H8C6.93913 39.9999 5.92172 39.5785 5.17157 38.8284C4.42143 38.0782 4 37.0608 4 35.9999V9.99995C4 8.93908 4.42143 7.92167 5.17157 7.17152C5.92172 6.42138 6.93913 5.99995 8 5.99995H15.8C16.469 5.99339 17.1289 6.15473 17.7194 6.46919C18.3099 6.78365 18.8121 7.2412 19.18 7.79995L20.8 10.1999C21.1642 10.753 21.6601 11.207 22.243 11.5212C22.826 11.8353 23.4778 11.9998 24.14 11.9999H36C37.0609 11.9999 38.0783 12.4214 38.8284 13.1715C39.5786 13.9217 40 14.9391 40 15.9999V19.9999Z" stroke="white" stroke-opacity="0.8" stroke-width="4" stroke-linecap="round" stroke-linejoin="round"/>
</svg>
