<svg width="24" height="24" viewBox="0 0 24 24" fill="none" xmlns="http://www.w3.org/2000/svg">
<path d="M14.9969 20.9956V12.9973C14.9969 12.7321 14.8916 12.4778 14.7041 12.2903C14.5166 12.1028 14.2623 11.9975 13.9971 11.9975H9.99796C9.7328 11.9975 9.4785 12.1028 9.291 12.2903C9.1035 12.4778 8.99817 12.7321 8.99817 12.9973V20.9956" stroke="white" stroke-opacity="0.6" stroke-width="1.99958" stroke-linecap="round" stroke-linejoin="round"/>
<path d="M2.99939 9.99793C2.99932 9.70706 3.06271 9.41968 3.18514 9.15583C3.30757 8.89197 3.48609 8.65801 3.70824 8.47025L10.7068 2.4725C11.0677 2.16748 11.525 2.00012 11.9975 2.00012C12.4701 2.00012 12.9273 2.16748 13.2882 2.4725L20.2868 8.47025C20.5089 8.65801 20.6875 8.89197 20.8099 9.15583C20.9323 9.41968 20.9957 9.70706 20.9956 9.99793V18.9961C20.9956 19.5264 20.785 20.035 20.41 20.41C20.035 20.785 19.5264 20.9956 18.9961 20.9956H4.99897C4.46865 20.9956 3.96005 20.785 3.58505 20.41C3.21006 20.035 2.99939 19.5264 2.99939 18.9961V9.99793Z" stroke="white" stroke-opacity="0.6" stroke-width="1.99958" stroke-linecap="round" stroke-linejoin="round"/>
</svg>
